{"title":"ICC Cricket World Cup 2011 Official Highlights - DVDRip - 720p -","uid":7132915,"size":2145953570,"categoryP":"video","categoryS":"other","magnet":"?xt=urn:btih:531875b7cd4adb3c6ff95d3d89a0726936ae14b8&amp;dn=ICC+Cricket+World+Cup+2011+Official+Highlights+-+DVDRip+-+720p+-&amp;tr=udp%3A%2F%2Ftracker.openbittorrent.com%3A80&amp;tr=udp%3A%2F%2Fopen.demonii.com%3A1337&amp;tr=udp%3A%2F%2Ftracker.coppersurfer.tk%3A6969&amp;tr=udp%3A%2F%2Fexodus.desync.com%3A6969","seeders":0,"leechers":1,"uploader":"DiD.DrC","files":2,"time":1332767008,"description":"ICC Cricket World Cup 2011 Official Highlights - DVDRip - 720p - x264 - AC3 - DrC \n\nScreenshots :\n &lt;a href=&quot;\nhttp://i.imgur.com/jRS43.jpg&quot; rel=&quot;nofollow&quot; target=&quot;_NEW&quot;&gt;\nhttp://i.imgur.com/jRS43.jpg&lt;/a&gt;\n &lt;a href=&quot;\nhttp://i.imgur.com/Vuyqa.jpg&quot; rel=&quot;nofollow&quot; target=&quot;_NEW&quot;&gt;\nhttp://i.imgur.com/Vuyqa.jpg&lt;/a&gt;\n &lt;a href=&quot;\nhttp://i.imgur.com/Lt5qK.jpg&quot; rel=&quot;nofollow&quot; target=&quot;_NEW&quot;&gt;\nhttp://i.imgur.com/Lt5qK.jpg&lt;/a&gt;\n &lt;a href=&quot;\nhttp://i.imgur.com/RWfiT.jpg&quot; rel=&quot;nofollow&quot; target=&quot;_NEW&quot;&gt;\nhttp://i.imgur.com/RWfiT.jpg&lt;/a&gt;\n &lt;a href=&quot;\nhttp://i.imgur.com/PTZvm.jpg&quot; rel=&quot;nofollow&quot; target=&quot;_NEW&quot;&gt;\nhttp://i.imgur.com/PTZvm.jpg&lt;/a&gt;\n &lt;a href=&quot;\nhttp://i.imgur.com/Knkkz.jpg&quot; rel=&quot;nofollow&quot; target=&quot;_NEW&quot;&gt;\nhttp://i.imgur.com/Knkkz.jpg&lt;/a&gt;\n &lt;a href=&quot;\nhttp://i.imgur.com/SXfNe.png&quot; rel=&quot;nofollow&quot; target=&quot;_NEW&quot;&gt;\nhttp://i.imgur.com/SXfNe.png&lt;/a&gt;\n &lt;a href=&quot;\nhttp://i.imgur.com/M8i0Y.jpg&quot; rel=&quot;nofollow&quot; target=&quot;_NEW&quot;&gt;\nhttp://i.imgur.com/M8i0Y.jpg&lt;/a&gt;\n &lt;a href=&quot;\nhttp://i.imgur.com/ZyfCg.jpg&quot; rel=&quot;nofollow&quot; target=&quot;_NEW&quot;&gt;\nhttp://i.imgur.com/ZyfCg.jpg&lt;/a&gt;\n &lt;a href=&quot;\nhttp://i.imgur.com/nALRg.jpg&quot; rel=&quot;nofollow&quot; target=&quot;_NEW&quot;&gt;\nhttp://i.imgur.com/nALRg.jpg&lt;/a&gt;\n &lt;a href=&quot;\nhttp://i.imgur.com/n7Oc9.jpg&quot; rel=&quot;nofollow&quot; target=&quot;_NEW&quot;&gt;\nhttp://i.imgur.com/n7Oc9.jpg&lt;/a&gt;\n\n\nRip Specs :\n\nGeneral\n\nFormat                                   : Matroska\nFormat version                           : Version 2\nFile size                                : 2.00 GiB\nDuration                                 : 2h 30mn\nOverall bit rate mode                    : Variable\nOverall bit rate                         : 1 906 Kbps\n\n\nVideo\n\nFormat                                   : AVC\nFormat/Info                              : Advanced Video Codec\nFormat profile                           : &lt;a class=&quot;__cf_email__&quot; href=&quot;/cdn-cgi/l/email-protection&quot; data-cfemail=&quot;743c1d131c3438405a45&quot;&gt;[email&amp;#160;protected]&lt;/a&gt;&lt;script cf-hash='f9e31' type=&quot;text/javascript&quot;&gt;\n/* &lt;![CDATA[ */!function(){try{var t=&quot;currentScript&quot;in document?document.currentScript:function(){for(var t=document.getElementsByTagName(&quot;script&quot;),e=t.length;e--;)if(t[e].getAttribute(&quot;cf-hash&quot;))return t[e]}();if(t&amp;&amp;t.previousSibling){var e,r,n,i,c=t.previousSibling,a=c.getAttribute(&quot;data-cfemail&quot;);if(a){for(e=&quot;&quot;,r=parseInt(a.substr(0,2),16),n=2;a.length-n;n+=2)i=parseInt(a.substr(n,2),16)^r,e+=String.fromCharCode(i);e=document.createTextNode(e),c.parentNode.replaceChild(e,c)}}}catch(u){}}();/* ]]&gt; */&lt;/script&gt;\nFormat settings, CABAC                   : Yes\nFormat settings, ReFrames                : 3 frames\nCodec ID                                 : V_MPEG4/ISO/AVC\nDuration                                 : 2h 30mn\nBit rate mode                            : Variable\nBit rate                                 : 1 648 Kbps\nMaximum bit rate                         : 40.0 Mbps\nWidth                                    : 1 280 pixels\nHeight                                   : 720 pixels\nDisplay aspect ratio                     : 16:9\nFrame rate                               : 23.976 fps\nColor space                              : YUV\nChroma subsampling                       : 4:2:0\nBit depth                                : 8 bits\nScan type                                : Progressive\nBits/(Pixel*Frame)                       : 0.075\nStream size                              : 1.69 GiB (85%)\n\nAudio\n\nFormat                                   : AC-3\nFormat/Info                              : Audio Coding 3\nMode extension                           : CM (complete main)\nCodec ID                                 : A_AC3\nDuration                                 : 2h 30mn\nBit rate mode                            : Constant\nBit rate                                 : 256 Kbps\nChannel(s)                               : 2 channels\nChannel positions                        : Front: L R\nSampling rate                            : 48.0 KHz\nBit depth                                : 16 bits\nCompression mode                         : Lossy\nDelay relative to video                  : 8ms\nStream size                              : 275 MiB (13%)\n","torrent":{"xt":"urn:btih:531875b7cd4adb3c6ff95d3d89a0726936ae14b8","amp;dn":"ICC+Cricket+World+Cup+2011+Official+Highlights+-+DVDRip+-+720p+-","amp;tr":["udp%3A%2F%2Ftracker.openbittorrent.com%3A80","udp%3A%2F%2Fopen.demonii.com%3A1337","udp%3A%2F%2Ftracker.coppersurfer.tk%3A6969","udp%3A%2F%2Fexodus.desync.com%3A6969"],"infoHash":"531875b7cd4adb3c6ff95d3d89a0726936ae14b8","infoHashBuffer":{"type":"Buffer","data":[83,24,117,183,205,74,219,60,111,249,93,61,137,160,114,105,54,174,20,184]},"announce":[],"urlList":[]}}